# xmcd
# 
# Track frame offsets:
#     150
#     13435
#     30916
#     49149
#     70598
#     99821
#     117038
#     131838
#     153127
#     165218
# 
# Disc length: 2438
# 
# Revision: 0
# Processed by: cddbd v1.5.2PL0 Copyright (c) Steve Scherf et al.
# Submitted via: fre:ac v1.1beta1pre4
# 
DISCID=6c09840a
DTITLE=The King Bees - HooDoo Moon
DYEAR=2013
DGENRE=Blues
TTITLE0=Blues Confusion
TTITLE1=Gimme My Money Back
TTITLE2=Go Anywhere
TTITLE3=Tears in the Rain
TTITLE4=Circlin' the Drain
TTITLE5=I Ain't Got You
TTITLE6=HooDoo Moon
TTITLE7=I Got My Ex Paid Off
TTITLE8=I'm Thinkin'
TTITLE9=Younger Girls
EXTD=
EXTT0=
EXTT1=
EXTT2=
EXTT3=
EXTT4=
EXTT5=
EXTT6=
EXTT7=
EXTT8=
EXTT9=
PLAYORDER=
